<svg width="71" height="58" viewBox="0 0 71 58" fill="none" xmlns="http://www.w3.org/2000/svg">
<path d="M32.66 41.76C22.436 41.76 14.2 35.032 14.2 26.68C14.2 18.328 22.436 11.6 32.66 11.6C42.884 11.6 51.12 18.328 51.12 26.68C51.12 35.032 42.884 41.76 32.66 41.76ZM32.66 13.92C23.998 13.92 17.04 19.604 17.04 26.68C17.04 33.756 23.998 39.44 32.66 39.44C41.322 39.44 48.28 33.756 48.28 26.68C48.28 19.604 41.322 13.92 32.66 13.92Z" fill="white"/>
<path d="M46.4085 36.2697L59.1601 46.6865L57.1522 48.3267L44.4006 37.9099L46.4085 36.2697Z" fill="white"/>
</svg>
